<svg xmlns="http://www.w3.org/2000/svg" version="1.1" xmlns:xlink="http://www.w3.org/1999/xlink" xmlns:svgjs="http://svgjs.com/svgjs" width="1440" height="560" preserveAspectRatio="none" viewBox="0 0 1440 560"><g mask="url(&quot;#SvgjsMask1000&quot;)" fill="none"><rect width="1440" height="560" x="0" y="0" fill="#0e2a47"></rect><path d="M405.7958961262061 187.42638985140042L543.9818351975531 158.05406177125167 376.42356804605737 49.240450780053465z" fill="rgba(28, 83, 142, 0.4)" class="triangle-float3"></path><path d="M802.349,600.687C862.114,600.457,920.597,576.951,952.126,526.179C985.402,472.594,988.99,404.775,958.191,349.73C926.688,293.427,866.811,255.824,802.349,258.494C741.68,261.007,697.224,308.899,667.371,361.775C638.14,413.548,621.315,475.575,650.561,527.34C680.187,579.778,742.121,600.919,802.349,600.687" fill="rgba(28, 83, 142, 0.4)" class="triangle-float2"></path><path d="M9.557468725342577 483.6481624828532L-36.891237513329585 567.4438467079915 112.02664194371391 595.2190639534306z" fill="rgba(28, 83, 142, 0.4)" class="triangle-float2"></path><path d="M306.132637178664 473.8094849048547L394.2597049940191 531.0398719103781 436.0417515946267 370.23407668458384z" fill="rgba(28, 83, 142, 0.4)" class="triangle-float3"></path><path d="M17.556,138.174C44.904,138.289,76.149,138.481,90.594,115.259C105.55,91.215,96.379,60.216,80.727,36.619C66.789,15.606,42.765,4.59,17.556,5.145C-6.648,5.678,-27.674,19.068,-40.972,39.299C-55.992,62.149,-68.352,91.117,-54.423,114.648C-40.641,137.93,-9.499,138.06,17.556,138.174" fill="rgba(28, 83, 142, 0.4)" class="triangle-float1"></path><path d="M473.2167592106649 229.57638833469167L412.92014361662586 338.35436234758174 521.698117629516 398.6509779416208 581.9947332235549 289.8730039287307z" fill="rgba(28, 83, 142, 0.4)" class="triangle-float2"></path></g><defs><mask id="SvgjsMask1000"><rect width="1440" height="560" fill="#ffffff"></rect></mask><style>
            @keyframes float1 {
                0%{transform: translate(0, 0)}
                50%{transform: translate(-10px, 0)}
                100%{transform: translate(0, 0)}
            }

            .triangle-float1 {
                animation: float1 5s infinite;
            }

            @keyframes float2 {
                0%{transform: translate(0, 0)}
                50%{transform: translate(-5px, -5px)}
                100%{transform: translate(0, 0)}
            }

            .triangle-float2 {
                animation: float2 4s infinite;
            }

            @keyframes float3 {
                0%{transform: translate(0, 0)}
                50%{transform: translate(0, -10px)}
                100%{transform: translate(0, 0)}
            }

            .triangle-float3 {
                animation: float3 6s infinite;
            }
        </style></defs></svg>